<?xml version="1.0" standalone="no"?>
<!DOCTYPE svg PUBLIC "-//W3C//DTD SVG 20010904//EN"
 "http://www.w3.org/TR/2001/REC-SVG-20010904/DTD/svg10.dtd">
<svg version="1.0" xmlns="http://www.w3.org/2000/svg"
 width="1024.000000pt" height="1024.000000pt" viewBox="0 0 1024.000000 1024.000000"
 preserveAspectRatio="xMidYMid meet">
<metadata>
Created by potrace 1.16, written by Peter Selinger 2001-2019
</metadata>
<g transform="translate(0.000000,1024.000000) scale(0.100000,-0.100000)"
fill="#000000" stroke="none">
<path d="M4890 6924 c-113 -46 -341 -142 -508 -211 -291 -122 -302 -128 -275
-140 66 -30 376 -153 377 -151 24 58 48 87 94 114 58 35 173 74 297 101 111
25 376 24 495 0 227 -48 357 -112 378 -189 l7 -26 90 40 c97 43 106 49 89 55
-13 4 20 82 39 94 5 4 7 14 4 22 -4 12 -1 14 11 10 42 -15 0 9 -63 36 -51 21
-74 27 -88 20 -12 -7 -22 -6 -33 6 -8 8 -22 15 -30 15 -8 0 -14 4 -14 10 0 5
8 7 18 4 9 -3 5 2 -11 11 -15 9 -31 13 -36 10 -5 -3 -11 0 -13 5 -4 14 -574
250 -602 250 -11 -1 -113 -39 -226 -86z"/>
<path d="M4909 6575 c-109 -16 -266 -68 -318 -106 l-41 -29 0 -181 0 -181 58
7 c137 16 387 -49 497 -130 20 -14 20 -13 17 310 l-3 325 -62 -1 c-34 -1 -101
-7 -148 -14z"/>
<path d="M4012 6263 c-18 -9 -43 -30 -55 -47 l-22 -31 -3 -757 -2 -758 1190 0
1190 0 -2 754 c-3 748 -3 755 -24 783 -11 15 -36 38 -54 51 -32 21 -41 22
-251 22 l-219 0 0 -70 0 -70 200 0 200 0 0 -675 0 -675 -1040 0 -1040 0 0 670
0 670 24 0 c23 0 24 3 19 35 -4 24 0 44 16 70 11 20 21 38 21 41 0 11 -119 2
-148 -13z"/>
<path d="M4339 6246 c12 -18 21 -50 21 -70 l0 -36 60 0 60 0 0 70 0 70 -81 0
-81 0 21 -34z"/>
<path d="M4487 5058 c-20 -72 -36 -132 -34 -134 3 -3 461 -5 1006 -4 313 0
333 1 326 18 -4 9 -21 67 -38 129 -23 81 -37 113 -49 116 -24 7 -23 -3 12
-113 16 -52 30 -101 30 -107 0 -10 -58 -13 -256 -13 -150 0 -253 4 -250 9 4 5
29 15 56 22 34 9 46 15 36 21 -8 4 -38 -1 -71 -12 -71 -24 -68 -24 -55 0 6 11
16 17 22 14 7 -5 8 -2 3 5 -5 9 -22 -1 -56 -35 l-49 -48 -42 40 c-75 69 -85
77 -94 63 -4 -7 -3 -10 2 -7 5 2 23 -9 39 -25 22 -22 25 -28 10 -22 -89 34
-170 54 -193 49 -22 -4 -24 -3 -12 6 12 9 10 10 -12 6 -16 -4 -28 -2 -28 2 0
10 -190 26 -199 17 -3 -3 1 -10 9 -15 12 -8 10 -10 -10 -11 -14 -1 38 -6 115
-10 134 -7 286 -36 309 -60 6 -5 -90 -9 -252 -9 -304 0 -279 -13 -232 125 35
103 36 115 13 115 -14 0 -26 -28 -56 -132z"/>
<path d="M3705 4573 c9 -52 29 -86 66 -117 l31 -26 1323 2 1323 3 27 25 c33
30 55 78 55 120 l0 30 -535 0 -535 0 -6 -25 c-13 -53 -25 -55 -334 -55 -309 0
-321 2 -334 55 l-6 25 -541 0 -541 0 7 -37z"/>
<path d="M2930 3644 l0 -76 -23 15 c-67 44 -160 20 -196 -52 -70 -135 52 -286
179 -223 31 15 40 16 40 6 0 -10 13 -14 45 -14 l45 0 0 210 0 210 -45 0 -45 0
0 -76z m-21 -140 c43 -55 11 -134 -54 -134 -24 0 -39 7 -54 26 -43 55 -11 134
54 134 24 0 39 -7 54 -26z"/>
<path d="M2338 3495 l-3 -195 153 0 152 0 0 34 c0 41 -17 46 -132 39 l-78 -4
0 45 0 46 91 0 90 0 -3 38 -3 37 -87 3 -88 3 0 34 c0 43 16 48 124 43 l76 -3
0 38 0 37 -145 0 -144 0 -3 -195z"/>
<path d="M3490 3495 l0 -195 146 0 146 0 -6 23 c-3 12 -6 30 -6 40 0 15 -11
17 -95 17 l-95 0 0 155 0 155 -45 0 -45 0 0 -195z"/>
<path d="M4568 3633 c-2 -31 -7 -39 -26 -41 -19 -3 -23 -9 -20 -35 2 -24 8
-33 26 -35 21 -3 22 -8 22 -88 0 -77 2 -87 25 -109 20 -21 34 -25 80 -25 61 0
72 10 57 50 -7 18 -17 24 -38 25 l-29 0 -3 73 -3 72 36 0 c33 0 35 2 35 35 0
33 -2 35 -35 35 -34 0 -35 1 -35 40 l0 40 -44 0 c-44 0 -45 0 -48 -37z"/>
<path d="M3891 3599 c-57 -11 -64 -18 -50 -57 9 -27 14 -30 29 -22 26 14 104
12 118 -2 26 -26 12 -36 -53 -40 -97 -6 -150 -58 -125 -123 20 -52 113 -76
171 -44 17 9 24 9 27 0 2 -6 21 -11 43 -11 l39 0 0 114 c0 100 -3 116 -21 140
-11 14 -28 30 -37 35 -29 15 -95 20 -141 10z"/>
<path d="M4297 3591 c-29 -15 -37 -16 -37 -5 0 10 -13 14 -45 14 l-45 0 0
-205 0 -205 45 0 45 0 0 70 0 70 26 -16 c36 -24 108 -22 141 2 51 39 68 71 67
132 0 75 -23 118 -77 143 -53 24 -74 24 -120 0z m85 -78 c24 -29 29 -54 17
-90 -28 -85 -139 -61 -139 30 0 63 84 104 122 60z"/>
<path d="M4860 3588 c-56 -29 -82 -73 -82 -138 0 -93 63 -152 161 -152 53 0
82 12 124 50 80 75 41 221 -69 251 -57 16 -85 14 -134 -11z m120 -68 c50 -27
40 -132 -14 -146 -43 -11 -76 4 -91 40 -33 78 33 144 105 106z"/>
<path d="M5298 3592 c-30 -16 -38 -17 -38 -6 0 10 -13 14 -45 14 l-45 0 0
-205 0 -205 45 0 45 0 0 69 0 69 38 -20 c93 -48 192 24 192 142 0 118 -99 190
-192 142z m82 -82 c28 -28 27 -87 -2 -117 -45 -48 -118 -13 -118 59 0 47 28
78 70 78 17 0 39 -9 50 -20z"/>
<path d="M3100 3494 c0 -114 12 -158 51 -182 30 -19 107 -17 128 2 22 20 31
20 31 1 0 -11 12 -15 45 -15 l45 0 0 150 0 150 -45 0 -45 0 0 -90 c0 -84 -2
-93 -25 -116 -19 -18 -31 -23 -48 -19 -39 12 -47 34 -47 132 l0 93 -45 0 -45
0 0 -106z"/>
</g>
</svg>
